<svg viewBox="0 0 24 24" xmlns="http://www.w3.org/2000/svg" fill="none" stroke="currentColor" stroke-width="2" stroke-linecap="round" stroke-linejoin="round" width="1em" height="1em">
  <title>Spring Data JPA</title>
  <!-- Database Cylinder representing Data Persistence -->
  <ellipse cx="12" cy="6" rx="8" ry="3" />
  <path d="M4 6v6c0 1.66 3.58 3 8 3s8-1.34 8-3V6" />
  <path d="M4 12v6c0 1.66 3.58 3 8 3s8-1.34 8-3v-6" />
  <!-- Small leaf accent representing Spring -->
  <path d="M11 2a9 9 0 0 1 9 9c0 2-3 4-5 4a9 9 0 0 1-9-9c0-2 3-4 5-4z" fill="currentColor" opacity="0.3" stroke="none" />
</svg>
